<svg width="233" height="223" viewBox="0 0 233 223" fill="none" xmlns="http://www.w3.org/2000/svg">
<ellipse cx="116" cy="215.5" rx="83" ry="7.5" fill="#D9D9D9"/>
<path d="M31.8206 95.6008C30.698 95.6008 29.6944 94.7929 29.4903 93.6532C28.0445 85.5993 23.7752 74.05 19.6504 62.8749C16.9714 55.6289 14.4456 48.7826 12.9147 43.4417C12.5575 42.183 13.2804 40.8733 14.5391 40.5076C15.7978 40.1419 17.1075 40.8733 17.4732 42.132C18.9615 47.3028 21.4534 54.0725 24.0983 61.2335C28.2911 72.5957 32.6285 84.3491 34.1509 92.8113C34.3805 94.0955 33.5215 95.3287 32.2373 95.5583C32.0927 95.5838 31.9567 95.5923 31.8121 95.5923L31.8206 95.6008Z" fill="#96A3AC"/>
<path d="M14.531 42.8123C14.4799 41.6301 14.6245 40.6436 14.8711 39.5805C15.1348 38.543 15.5345 37.5224 16.0703 36.5444C16.6146 35.5748 17.329 34.6478 18.2135 33.8994C19.098 33.1425 20.2121 32.6237 21.3517 32.4451C22.2107 32.309 23.0101 32.8874 23.1462 33.7463C23.2227 34.2056 23.0866 34.6478 22.8145 34.9795L22.6104 35.2346C22.0661 35.9065 21.5388 36.3658 21.0625 36.9356C20.5948 37.4969 20.076 38.0327 19.6763 38.7045C19.251 39.3509 18.8683 40.0653 18.5196 40.8137C18.171 41.5451 17.8478 42.4041 17.5671 43.1015L17.4821 43.3226C17.1674 44.105 16.2659 44.4877 15.4835 44.173C14.9052 43.9434 14.548 43.3991 14.5224 42.8123H14.531Z" fill="#96A3AC"/>
<path d="M13.6804 42.5064C13.3828 41.2052 12.9405 39.8275 12.4388 38.5433C11.937 37.242 11.3672 35.9663 10.6188 34.8182C9.87885 33.6701 9.13044 32.5645 8.41605 31.5184C7.68465 30.4723 7.02128 29.5028 6.40895 28.2781L6.29838 28.0655C5.89867 27.2661 6.21334 26.2965 7.01278 25.8883C7.40399 25.6927 7.84623 25.6672 8.22894 25.7948C9.92988 26.3391 11.2141 27.5552 12.1751 28.8564C13.1446 30.1747 13.7655 31.646 14.2758 33.1173C14.7775 34.5886 15.2198 36.0429 15.6365 37.4972C16.0277 38.9685 16.3849 40.3888 16.6826 41.9281C16.8442 42.7616 16.2999 43.561 15.4664 43.7226C14.6585 43.8757 13.876 43.3654 13.6889 42.566V42.5149L13.6804 42.5064Z" fill="#96A3AC"/>
<path d="M14.6069 44.5472C13.6374 43.4501 12.5403 42.3615 11.4432 41.3325C10.3376 40.3034 9.23197 39.2743 8.03281 38.3984C6.84216 37.5054 5.58347 36.7144 4.3673 35.9915C3.15964 35.2091 1.97749 34.6903 1.02497 33.4997L0.837863 33.27C0.268051 32.5556 0.378612 31.5096 1.093 30.9398C1.34814 30.7357 1.64581 30.6166 1.94347 30.5826C3.93356 30.3614 5.4559 31.399 6.81664 32.3175C8.17739 33.2956 9.32552 34.4522 10.4736 35.5748C11.6048 36.7144 12.7444 37.8115 13.8075 38.9937C14.8791 40.1673 15.8996 41.3325 16.9372 42.5826C17.4815 43.229 17.3879 44.1985 16.7416 44.7343C16.1037 45.2616 15.1682 45.1851 14.6154 44.5727L14.5984 44.5472H14.6069Z" fill="#96A3AC"/>
<path d="M14.5818 44.5135C14.4287 44.4455 13.9014 44.2074 13.3656 44.0373C12.8213 43.8502 12.2005 43.6631 11.5797 43.4845C10.321 43.1103 9.01124 42.7106 7.70153 42.2343C6.40031 41.741 5.0906 41.2137 3.84891 40.5163C2.60723 39.819 1.43359 38.977 0.430039 37.9139C-0.165287 37.2846 -0.139773 36.2895 0.489572 35.6942C0.92331 35.286 1.51864 35.1669 2.04593 35.337L2.12247 35.3625C3.38116 35.7707 4.52929 36.281 5.70293 36.7828C6.87657 37.2761 8.03321 37.8204 9.23237 38.3051L12.9234 39.8615C13.5612 40.1592 14.1991 40.4398 14.871 40.8395C15.5343 41.2477 16.2487 41.6305 16.9716 42.6085C17.4479 43.2548 17.3033 44.1648 16.6569 44.6326C16.2317 44.9473 15.6874 44.9898 15.2282 44.7942L14.5733 44.5135H14.5818Z" fill="#96A3AC"/>
<path d="M12.3963 38.4666C12.2687 37.8712 11.9541 37.3525 11.6989 36.8082C11.4268 36.2724 11.1376 35.7451 10.8314 35.2263C10.2276 34.1887 9.54724 33.1852 8.81584 32.2497L8.83285 32.2752C8.24603 31.6884 7.72724 31.042 7.25949 30.3446C6.81724 29.6387 6.40902 28.8818 6.22192 28.0313C6.12837 27.6061 6.09435 27.1384 6.26444 26.6876C6.40902 26.2284 6.84276 25.8712 7.285 25.7861C8.195 25.6075 9.00294 26.0328 9.6493 26.5005C8.9264 26.1433 8.08444 25.9052 7.37855 26.1263C6.63014 26.3474 6.5621 27.1979 6.76622 27.9038C6.96182 28.6352 7.37005 29.3241 7.82079 29.9704C8.26304 30.6253 8.78182 31.2376 9.2921 31.8584L9.30911 31.884C10.0235 32.8875 10.6103 33.9676 11.1546 35.0562C11.4268 35.6005 11.6819 36.1533 11.903 36.7231C12.1157 37.2844 12.3623 37.8712 12.3878 38.4836L12.3963 38.4666Z" fill="#7A858C"/>
<path d="M10.6783 40.0317C10.5847 39.6915 10.2275 39.5299 9.95537 39.3258C9.66621 39.1302 9.36854 38.9601 9.06238 38.7815L7.23387 37.7609C6.01771 37.072 4.79304 36.4002 3.60238 35.6432C2.42023 34.9203 1.13603 34.0699 0.532199 32.6071C0.404629 32.2414 0.328087 31.8076 0.481171 31.3824C0.634254 30.9657 1.00846 30.6765 1.38266 30.566C2.13958 30.3278 2.87949 30.549 3.51734 30.8126C2.82846 30.7105 2.10556 30.6935 1.52724 30.9487C0.923413 31.2038 0.846871 31.8161 1.10201 32.3775C1.64631 33.5171 2.79444 34.359 3.92556 35.1245L7.42948 37.4122C8.0163 37.7864 8.60312 38.1776 9.17294 38.5774C9.4621 38.7815 9.74275 38.9856 10.0149 39.2067C10.2615 39.4363 10.6017 39.6574 10.6613 40.0231L10.6783 40.0317Z" fill="#7A858C"/>
<path d="M200.877 93.8999C201.999 93.8999 203.003 93.0919 203.207 91.9523C204.653 83.8984 208.922 72.3491 213.047 61.1739C215.726 53.928 218.252 47.0817 219.783 41.7408C220.14 40.4821 219.417 39.1724 218.158 38.8067C216.899 38.441 215.59 39.1724 215.224 40.4311C213.736 45.6019 211.244 52.3716 208.599 59.5325C204.406 70.8948 200.069 82.6482 198.546 91.1103C198.317 92.3946 199.176 93.6277 200.46 93.8574C200.605 93.8829 200.741 93.8914 200.885 93.8914L200.877 93.8999Z" fill="#96A3AC"/>
<path d="M218.167 41.1114C218.218 39.9292 218.073 38.9427 217.826 37.8796C217.563 36.842 217.163 35.8215 216.627 34.8434C216.083 33.8739 215.369 32.9469 214.484 32.1985C213.6 31.4416 212.486 30.9228 211.346 30.7442C210.487 30.6081 209.687 31.1864 209.551 32.0454C209.475 32.5046 209.611 32.9469 209.883 33.2786L210.087 33.5337C210.632 34.2056 211.159 34.6648 211.635 35.2346C212.103 35.7959 212.622 36.3317 213.021 37.0036C213.447 37.65 213.829 38.3644 214.178 39.1128C214.527 39.8442 214.85 40.7031 215.13 41.4005L215.216 41.6216C215.53 42.4041 216.432 42.7868 217.214 42.4721C217.792 42.2425 218.15 41.6982 218.175 41.1114H218.167Z" fill="#96A3AC"/>
<path d="M219.017 40.8055C219.314 39.5043 219.757 38.1265 220.258 36.8423C220.76 35.5411 221.33 34.2654 222.078 33.1173C222.818 31.9692 223.567 30.8636 224.281 29.8175C225.012 28.7714 225.676 27.8019 226.288 26.5772L226.399 26.3646C226.798 25.5651 226.484 24.5956 225.684 24.1874C225.293 23.9918 224.851 23.9663 224.468 24.0938C222.767 24.6381 221.483 25.8543 220.522 27.1555C219.552 28.4737 218.932 29.945 218.421 31.4164C217.92 32.8877 217.477 34.342 217.061 35.7963C216.669 37.2676 216.312 38.6878 216.014 40.2272C215.853 41.0606 216.397 41.8601 217.231 42.0217C218.039 42.1748 218.821 41.6645 219.008 40.865V40.814L219.017 40.8055Z" fill="#96A3AC"/>
<path d="M218.09 42.8463C219.059 41.7492 220.156 40.6606 221.254 39.6315C222.359 38.6025 223.465 37.5734 224.664 36.6974C225.855 35.8044 227.113 35.0135 228.329 34.2906C229.537 33.5082 230.719 32.9894 231.672 31.7987L231.859 31.5691C232.429 30.8547 232.318 29.8086 231.604 29.2388C231.349 29.0347 231.051 28.9157 230.753 28.8816C228.763 28.6605 227.241 29.6981 225.88 30.6166C224.519 31.5946 223.371 32.7513 222.223 33.8739C221.092 35.0135 219.952 36.1106 218.889 37.2927C217.818 38.4664 216.797 39.6315 215.76 40.8817C215.215 41.5281 215.309 42.4976 215.955 43.0334C216.593 43.5607 217.529 43.4841 218.081 42.8718L218.098 42.8463H218.09Z" fill="#96A3AC"/>
<path d="M218.116 42.8126C218.269 42.7446 218.796 42.5064 219.332 42.3363C219.876 42.1492 220.497 41.9621 221.118 41.7835C222.376 41.4093 223.686 41.0096 224.996 40.5334C226.297 40.0401 227.607 39.5128 228.848 38.8154C230.09 38.118 231.264 37.2761 232.267 36.213C232.863 35.5836 232.837 34.5886 232.208 33.9933C231.774 33.585 231.179 33.466 230.651 33.6361L230.575 33.6616C229.316 34.0698 228.168 34.5801 226.994 35.0819C225.821 35.5751 224.664 36.1194 223.465 36.6042L219.774 38.1606C219.136 38.4582 218.498 38.7389 217.826 39.1386C217.163 39.5468 216.449 39.9295 215.726 40.9076C215.249 41.5539 215.394 42.4639 216.04 42.9317C216.466 43.2463 217.01 43.2889 217.469 43.0933L218.124 42.8126H218.116Z" fill="#96A3AC"/>
<path d="M220.301 36.7656C220.429 36.1703 220.743 35.6515 220.998 35.1072C221.271 34.5714 221.56 34.0441 221.866 33.5254C222.47 32.4878 223.15 31.4842 223.881 30.5487L223.864 30.5742C224.451 29.9874 224.97 29.3411 225.438 28.6437C225.88 27.9378 226.288 27.1809 226.475 26.3304C226.569 25.9052 226.603 25.4374 226.433 24.9867C226.288 24.5274 225.855 24.1702 225.412 24.0852C224.502 23.9066 223.694 24.3318 223.048 24.7996C223.771 24.4424 224.613 24.2042 225.319 24.4254C226.067 24.6465 226.135 25.497 225.931 26.2028C225.736 26.9342 225.327 27.6231 224.877 28.2695C224.434 28.9243 223.916 29.5367 223.405 30.1575L223.388 30.183C222.674 31.1866 222.087 32.2667 221.543 33.3553C221.271 33.8996 221.015 34.4524 220.794 35.0222C220.582 35.5835 220.335 36.1703 220.31 36.7826L220.301 36.7656Z" fill="#7A858C"/>
<path d="M222.019 38.3307C222.113 37.9905 222.47 37.8289 222.742 37.6248C223.031 37.4292 223.329 37.2591 223.635 37.0805L225.463 36.06C226.68 35.3711 227.904 34.6992 229.095 33.9423C230.277 33.2194 231.561 32.3689 232.165 30.9061C232.293 30.5404 232.369 30.1067 232.216 29.6815C232.063 29.2647 231.689 28.9756 231.315 28.865C230.558 28.6269 229.818 28.848 229.18 29.1117C229.869 29.0096 230.592 28.9926 231.17 29.2477C231.774 29.5029 231.85 30.1152 231.595 30.6765C231.051 31.8161 229.903 32.6581 228.772 33.4235L225.268 35.7113C224.681 36.0855 224.094 36.4767 223.524 36.8764C223.235 37.0805 222.955 37.2846 222.682 37.5058C222.436 37.7354 222.096 37.9565 222.036 38.3222L222.019 38.3307Z" fill="#7A858C"/>
<path d="M76.1216 208.296C75.8834 208.296 75.6453 208.262 75.4072 208.186C74.157 207.794 73.4681 206.459 73.8593 205.217L74.9224 201.824C78.3668 190.802 81.9303 179.406 88.836 164.931C89.3974 163.749 90.8176 163.255 91.9913 163.817C93.1734 164.378 93.6752 165.798 93.1054 166.972C86.3442 181.141 82.8318 192.375 79.4384 203.236L78.3753 206.638C78.0606 207.65 77.1251 208.296 76.1131 208.296H76.1216Z" fill="#96A3AC"/>
<path d="M158.455 208.296C157.392 208.296 156.423 207.573 156.159 206.493C155.896 205.422 155.606 204.214 155.283 202.904C152.953 193.269 149.049 177.135 144.584 166.64C144.074 165.433 144.635 164.047 145.835 163.536C147.034 163.026 148.428 163.587 148.939 164.786C153.557 175.638 157.52 192.01 159.884 201.79C160.199 203.1 160.488 204.299 160.752 205.362C161.066 206.629 160.292 207.914 159.017 208.228C158.83 208.271 158.634 208.296 158.447 208.296H158.455Z" fill="#96A3AC"/>
<path d="M115.277 89.5966L153.344 8.84485C141.829 3.17224 128.927 0 115.294 0C101.661 0 88.751 3.18074 77.2441 8.84485L115.286 89.5966H115.277Z" fill="#F8DD41"/>
<path d="M115.277 89.5966L77.2357 8.84477C53.4907 20.5387 35.6904 42.8464 29.7031 69.7467L115.277 89.5966Z" fill="#20C868"/>
<path d="M200.885 69.7467C194.907 42.8464 177.098 20.5472 153.353 8.84477L115.277 89.588L200.877 69.7382L200.885 69.7467Z" fill="#FF9400"/>
<path d="M200.885 69.7553L115.286 89.5967L159.91 126.022L183.944 145.642C195.918 130.308 203.079 110.867 203.079 89.7242C203.079 82.861 202.322 76.1763 200.894 69.7553H200.885Z" fill="#F32732"/>
<path d="M115.277 89.5967L115.294 179.448C143.079 179.448 167.845 166.249 183.927 145.651L115.277 89.5967Z" fill="#F353AF"/>
<path d="M46.6614 145.651C62.7437 166.249 87.5093 179.448 115.294 179.448V89.5967L46.6614 145.651Z" fill="#8D45B6"/>
<path d="M29.703 69.7553C28.2742 76.1763 27.5173 82.861 27.5173 89.7242C27.5173 110.875 34.6783 130.308 46.6528 145.651L115.277 89.6052L29.703 69.7638V69.7553Z" fill="#1675CE"/>
<path d="M130.909 31.7479L115.251 11.2346L99.5944 31.7479C74.6672 38.5856 56.3567 61.3526 56.3567 88.3889C56.3567 120.834 82.7296 147.131 115.251 147.131C147.773 147.131 174.146 120.834 174.146 88.3889C174.146 61.3526 155.836 38.5856 130.9 31.7479H130.909Z" fill="white"/>
<path d="M87.9091 65.9365C88.3938 66.5489 92.3995 63.9124 96.839 64.3717C101.695 64.8734 105.25 68.0032 105.888 67.1867C107.104 65.6219 101.789 58.9542 95.997 58.7246C90.2053 58.495 86.8885 64.6438 87.9091 65.928V65.9365Z" fill="#28292B"/>
<path d="M141.284 64.9673C140.859 65.5967 136.87 63.3174 132.652 64.0743C128.043 64.8993 124.836 68.1821 124.181 67.4422C122.923 66.0134 127.583 59.1672 133.103 58.5463C138.622 57.9255 142.177 63.6576 141.284 64.9758V64.9673Z" fill="#28292B"/>
<path d="M130.594 36.672C130.015 37.9477 131.937 40.0738 134.88 41.4006C137.84 42.7358 140.697 42.7783 141.284 41.4856C141.854 40.2099 139.932 38.0922 136.981 36.7655C134.03 35.4303 131.164 35.3878 130.594 36.672Z" fill="#28292B"/>
<path d="M100.981 39.7592C101.602 41.0179 99.7477 43.2036 96.8561 44.6408C93.939 46.0696 91.0899 46.2142 90.4776 44.9555C89.8482 43.6968 91.6938 41.5111 94.6024 40.0738C97.5195 38.6366 100.36 38.5005 100.989 39.7592" fill="#28292B"/>
<path d="M159.603 63.9552C159.433 63.2663 159.152 62.6965 158.727 62.1777C158.489 61.8885 158.149 61.5228 157.689 61.2422C153.973 58.8184 149.049 62.1012 146.735 65.2139C146.616 65.3755 146.616 65.6051 146.744 65.7667C146.829 65.8772 146.965 65.9368 147.101 65.9368C147.161 65.9368 147.237 65.9368 147.288 65.8942C154.084 60.919 157.945 63.5129 158.863 64.9332C158.974 65.1033 159.178 65.1798 159.373 65.1288C159.569 65.0778 159.705 64.8992 159.705 64.7036C159.705 64.6781 159.705 64.4059 159.612 63.9637L159.603 63.9552Z" fill="#28292B"/>
<path d="M67.6677 63.9892C67.8378 63.3003 68.1185 62.7305 68.5437 62.2117C68.7818 61.9226 69.122 61.5569 69.5813 61.2762C73.2978 58.8524 78.222 62.1352 80.5353 65.2479C80.6544 65.4095 80.6544 65.6391 80.5268 65.8007C80.4417 65.9113 80.3057 65.9708 80.1696 65.9708C80.1101 65.9708 80.0335 65.9708 79.9825 65.9283C73.1873 60.9531 69.3261 63.547 68.4076 64.9673C68.2971 65.1374 68.093 65.2139 67.8974 65.1629C67.7017 65.1118 67.5657 64.9332 67.5657 64.7376C67.5657 64.7121 67.5657 64.44 67.6592 63.9977L67.6677 63.9892Z" fill="#28292B"/>
<path d="M73.7742 62.4329C93.5985 89.9795 144.729 82.3678 153.871 62.4329C139.872 140.803 90.4093 145.643 73.7742 62.4329Z" fill="#28292B"/>
<path d="M132.95 113.367C129.65 105.041 122.446 99.2666 114.078 99.2666C105.709 99.2666 98.5227 104.956 95.2825 113.427C107.257 126.414 121.256 126.082 132.941 113.367H132.95Z" fill="#ED696B"/>
<path d="M78.2476 206.885C78.069 209.717 75.6452 214.309 70.0151 215.27C64.7677 216.163 59.4693 216.24 58.6529 213.62C57.8364 211.001 61.3829 206.544 67.0385 205.779C72.7536 205.005 78.4177 204.138 78.2476 206.876V206.885Z" fill="#96A3AC"/>
<path d="M156.491 206.885C156.669 209.717 158.693 214.488 164.324 215.449C169.571 216.342 174.869 216.418 175.686 213.799C176.502 211.179 172.956 206.723 167.3 205.958C161.585 205.184 156.312 204.146 156.491 206.885Z" fill="#96A3AC"/>
</svg>
